# xmcd
#
# Track frame offsets:
#	150
#	11398
#	25481
#	38133
#	52801
#	67663
#	87206
#	101132
#	114668
#	129062
#
# Disc length: 1962 seconds
#
# Revision: 0
# Processed by: cddbd v1.4PL0 Copyright (c) Steve Scherf et al.
# Submitted via: EasyCDDAExtractor 4.6.9.1
#
DISCID=6f07a80a
DTITLE=Marty Robbins - Biggest Hits
DYEAR=1990
DGENRE=Country
TTITLE0=Ribbon Of Darkness
TTITLE1=An Occasional Rose
TTITLE2=She's Just A Drifter
TTITLE3=My Greatest Memory
TTITLE4=Padre
TTITLE5=El Paso
TTITLE6=Completely Out Of Love
TTITLE7=Jenny
TTITLE8=Teardrops In My Heart
TTITLE9=You Gave Me A Mountain
EXTD=
EXTT0=
EXTT1=
EXTT2=
EXTT3=
EXTT4=
EXTT5=
EXTT6=
EXTT7=
EXTT8=
EXTT9=
PLAYORDER=
